<svg width="683" height="683" viewBox="0 0 683 683" fill="none" xmlns="http://www.w3.org/2000/svg">
<path d="M345.266 33.1999L341 37.4666L330.466 35.1999C318.466 32.7999 314.2 33.7332 311.4 39.5999C309.933 42.6666 311 60.6666 314.2 87.1999L315 92.9333H295.266C274.466 92.9333 273.8 93.0666 265.666 100.267C263.666 102.133 258.2 104.133 251.666 105.6C225.933 111.2 198.733 123.333 173.533 140.267C165.4 145.733 158.466 150.267 157.933 150.267C157.533 150.267 151.4 144.533 144.2 137.6L131.4 124.933H123.133C115.666 124.933 114.333 125.333 110.866 128.8C107.266 132.533 107 133.333 107 143.867C107 154.267 106.6 155.6 101.666 164.933C97.533 172.933 96.333 176.4 96.333 182C96.333 188.533 96.733 189.467 102.466 195.6L108.6 202.267L101.266 211.867C88.5997 228.533 72.333 257.867 72.333 264C72.333 265.333 74.1997 268.267 76.4663 270.533L80.4663 274.667L76.733 283.867C74.1997 290.133 71.933 293.733 69.6663 294.933C67.7997 295.867 65.2663 297.867 63.7997 299.467C61.3997 302.133 57.533 318.133 55.6663 333.333C54.9997 338.133 53.933 341.467 52.733 341.867C50.9997 342.533 21.933 340.267 12.733 338.667C9.13301 338.133 7.66634 338.667 4.33301 342L0.333008 346V365.333C0.333008 382.667 0.599675 384.933 2.99967 388L5.66634 391.467L2.99967 395.867C-0.600325 401.867 -0.333659 404.4 4.19967 409.067L8.06634 412.933H30.8663H53.6663V419.333C53.6663 422.933 56.333 438.267 59.533 453.6L65.3997 481.333L72.1997 488.133C76.0663 492 83.7997 503.333 90.5997 514.933C102.066 534.267 103 535.333 116.466 546.667C133.266 560.933 137.533 563.333 142.2 561.2C146.733 559.2 150.2 553.6 149.133 550C148.733 548.267 143.933 540.667 138.333 533.067C130.6 522.267 128.333 518.267 128.333 514.667C128.333 512.133 125.933 503.067 123 494.533C114.866 470.533 108.6 433.6 109.933 416.933C110.333 411.333 110.6 410.933 115 410.133C117.533 409.733 123 407.733 127 405.867C133.133 403.067 139.133 402.133 165 399.467C194.733 396.533 195.8 396.267 199.4 392.8C203.8 388.4 203.933 384.933 199.933 380.267C197.4 377.2 193.533 375.867 171 370.8C150.733 366.133 142.733 363.6 134.733 359.467C128.6 356.267 122.733 354.267 119.933 354.267C117.266 354.267 114.733 353.6 114.333 352.933C112.6 350 124.866 314.8 135.4 292.933C139.8 283.867 142.6 279.6 145.4 278C147.933 276.4 152.066 270.933 157 262.267L164.6 248.933L171.533 254.667C179.533 261.6 183.133 263.6 187 263.6C188.6 263.6 201.933 270.8 216.6 279.6C231.266 288.4 244.6 295.6 245.933 295.6C249.133 295.6 256.333 288.667 256.333 285.6C256.333 282.267 254.333 279.067 238.733 258.4C227.666 243.467 224.333 238.267 224.333 235.067C224.333 230.4 222.466 227.2 214.066 217.733C210.866 214.133 208.733 210.8 209.266 210.267C209.8 209.867 213.533 206.8 217.4 203.733C221.133 200.533 224.333 197.2 224.333 196.133C224.333 195.067 225.533 194.267 226.866 194.267C228.333 194.267 235.4 191.2 242.466 187.6C263.933 176.533 296.6 167.6 315.133 167.6C322.466 167.6 321.933 166 324.6 194.933C326.2 212.933 326.333 213.6 330.466 218.267C334.6 222.8 334.866 223.867 336.466 239.6C338.066 254.8 338.466 256.533 341.8 259.867C345.933 264 348.2 264.4 353.4 261.733C361.533 257.467 361.666 256.933 368.466 211.333C372.066 187.867 375.266 168.267 375.533 167.867C377.4 166.133 417.266 178.533 435.4 186.4C441.8 189.333 449 191.6 451.4 191.6C455 191.6 457.133 193.2 465.4 202.267L475.266 212.933L469.133 221.067C463.933 228 463 229.867 463.666 233.467C464.466 237.067 462.733 240.8 451.133 260.133C443.666 272.533 437.666 283.867 437.666 285.2C437.666 288.533 444.733 295.6 447.933 295.6C451.4 295.467 453.666 294 476.6 276.533C496.866 261.2 497.266 260.933 501.533 262.4C506.866 264.267 509.666 263.2 520.6 254.667C527 249.867 528.866 248.933 529.8 250.4C530.466 251.467 530.6 253.2 530.2 254.267C529.666 255.333 529.133 257.2 528.733 258.4C528.466 259.467 532.066 268.133 536.733 277.733C546.6 297.467 553.133 314.4 559.666 337.2C562.2 346 564.333 353.333 564.333 353.6C564.333 353.733 559.4 354.667 553.4 355.6C545.266 356.8 539.933 358.533 533 362.267C525.133 366.667 519.933 368.133 499.666 372C478.333 376.133 475.4 377.067 472.733 380.133C468.733 384.933 468.866 388.4 473.4 392.8C476.866 396.267 477.8 396.533 504.333 398.8C526.466 400.667 531.933 401.6 533 403.333C533.8 404.533 535.933 407.2 537.933 409.2C541.4 412.8 541.933 412.933 555.533 412.933H569.666V418C569.666 426.667 565.8 456.4 562.866 469.867C561.4 477.067 557.666 489.867 554.733 498.267C551.933 506.667 548.6 517.2 547.533 521.6C546.333 526 542.866 534.133 539.533 539.733C536.333 545.333 533.666 550.933 533.666 552.133C533.666 555.333 540.866 562.267 544.066 562.267C547.8 562.267 552.733 558 559.933 548.533C563.4 544 569.266 536.933 573 532.933C576.733 528.933 582.066 521.333 584.866 516.267C587.8 511.067 593.8 502.267 598.333 496.667C604.733 488.8 607.666 483.6 611 474.667C617.266 457.333 625.666 427.867 625.666 423.067C625.666 420.8 626.066 417.6 626.466 416C627.266 412.933 627.533 412.933 651.266 412.933H675.266L679.266 408.933C683.266 404.933 683.266 404.667 682.333 395.867C681.8 390.933 680.066 383.333 678.333 379.067L675.133 371.2L679.133 366.667C682.733 362.4 683 361.6 682.2 354.533C681.266 346.4 679.133 341.867 675.133 339.733C673.4 338.8 665.8 339.067 650.466 340.533C638.333 341.733 628.066 342.4 627.8 342.133C627.4 341.733 625.933 332.933 624.333 322.533C619 286.4 617 278 613.133 274.667C611.133 272.933 607.8 271.6 605.666 271.6C600.066 271.6 599.666 269.467 604.2 264.133C606.466 261.6 608.333 258.4 608.333 257.067C608.333 254.8 594.866 231.2 585 216.533L579.933 208.8L588.733 200.533L597.666 192.267V183.867C597.666 176.267 597.266 174.933 593.8 171.467C591.666 169.333 589.133 167.6 588.066 167.6C587.133 167.6 584.066 164.4 581.4 160.667C576.6 154 576.333 153.2 576.333 143.2C576.333 133.467 576.066 132.533 572.466 128.8C569.533 125.867 567.266 124.933 563.533 124.933C558.866 124.933 557.266 126.267 540.733 142.533C527.533 155.6 523 159.467 523 157.333C523 153.2 518.333 148.133 512.466 145.867C509.533 144.667 500.6 139.6 492.6 134.533C475.133 123.6 456.066 115.067 451.666 116.133C449.4 116.667 447.533 115.867 444.733 113.2C442.733 111.067 435.933 107.467 429.666 105.067C417.4 100.267 393 94.2666 386.066 94.2666H381.666V86.5332C381.666 82.3999 382.333 71.9999 383 63.5999C384.333 46.5333 383.666 44.1333 376.333 40.2666C374.066 39.0666 372.333 37.3333 372.333 36.2666C372.333 32.2666 365.666 28.9332 357.4 28.9332C350.2 28.9332 349 29.3332 345.266 33.1999Z" fill="black"/>
</svg>
